<?xml version="1.0" standalone="no"?>
<!DOCTYPE svg PUBLIC "-//W3C//DTD SVG 20010904//EN"
 "http://www.w3.org/TR/2001/REC-SVG-20010904/DTD/svg10.dtd">
<svg version="1.0" xmlns="http://www.w3.org/2000/svg"
 width="1037.000000pt" height="1037.000000pt" viewBox="0 0 1037.000000 1037.000000"
 preserveAspectRatio="xMidYMid meet">
<metadata>
Created by potrace 1.11, written by Peter Selinger 2001-2013
</metadata>
<g transform="translate(0.000000,1037.000000) scale(0.100000,-0.100000)"
fill="#000000" stroke="none">
<path d="M3290 8479 c-1031 -1033 -1876 -1883 -1878 -1887 -1 -4 315 -323 702
-708 l705 -699 -707 -708 -707 -708 1889 -1884 1888 -1885 1886 1885 c1036
1037 1883 1887 1881 1890 -2 2 -319 319 -703 704 l-699 701 19 21 c10 12 326
328 702 703 375 374 681 684 680 688 -7 17 -3761 3768 -3772 3767 -6 0 -855
-846 -1886 -1880z m3073 -2117 l1178 -1178 -1182 -1178 -1182 -1178 -1173
1173 c-646 646 -1174 1178 -1174 1182 0 9 2341 2356 2350 2356 3 1 535 -529
1183 -1177z"/>
<path d="M3686 5668 l-490 -489 489 -489 488 -488 242 241 c133 133 354 353
490 490 l247 247 -489 489 -488 488 -489 -489z"/>
<path d="M5729 5671 l-489 -489 469 -468 c257 -258 478 -477 489 -488 21 -18
22 -17 508 468 l487 487 -24 26 c-13 14 -233 234 -488 489 l-463 464 -489
-489z"/>
</g>
</svg>
